<?xml version="1.0" encoding="utf-8"?>
<!-- Generator: Adobe Illustrator 25.4.1, SVG Export Plug-In . SVG Version: 6.00 Build 0)  -->
<svg version="1.1" xmlns="http://www.w3.org/2000/svg" xmlns:xlink="http://www.w3.org/1999/xlink" x="0px" y="0px"
	 viewBox="0 0 226.8 226.8" style="enable-background:new 0 0 226.8 226.8;" xml:space="preserve">
<style type="text/css">
	.st0{display:none;}
	.st1{display:inline;fill:none;stroke:#252D5E;stroke-width:0.9835;stroke-miterlimit:10;}
	.st2{display:inline;fill:none;stroke:#252D5E;stroke-width:0.8902;stroke-miterlimit:10;}
	.st3{display:inline;fill:none;stroke:#5A2435;stroke-width:12;stroke-miterlimit:10;}
	.st4{display:inline;fill:none;stroke:#5A2435;stroke-width:9;stroke-miterlimit:10;}
	.st5{fill:#252D5E;}
</style>
<g id="Layer_5" class="st0">
	<path class="st1" d="M79.1,189.2c-27.5-12.7-46.5-39.9-46.5-71.3c0-43.6,36.6-79,81.7-79c45.1,0,81.7,35.4,81.7,79
		c0,43.6-36.6,79-81.7,79C101.7,196.9,89.8,194.1,79.1,189.2"/>
	<path class="st2" d="M81.4,181.7c-23.7-11.9-39.9-35.5-39.9-62.8c0-39.1,33.4-70.9,74.6-70.9c41.2,0,74.6,31.7,74.6,70.9
		c0,39.1-33.4,70.9-74.6,70.9C103.5,189.8,91.7,186.9,81.4,181.7"/>
	<line class="st3" x1="147.9" y1="77.9" x2="164.5" y2="41.5"/>
	<line class="st4" x1="81.6" y1="72.8" x2="92.7" y2="35.5"/>
	<line class="st3" x1="82.5" y1="214.1" x2="110" y2="176.1"/>
	<line class="st4" x1="90.6" y1="166.4" x2="76.1" y2="215.4"/>
</g>
<g id="Layer_4">
	<path class="st5" d="M79.1,189.2c-27.5-12.7-46.5-39.9-46.5-71.3c0-33.8,22-62.7,52.9-73.9L82,55.8c-24.1,11.7-40.6,35.6-40.6,63.1
		c0,27.3,16.2,50.9,39.9,62.8L79.1,189.2z"/>
	<polygon class="st5" points="100.1,40.1 77.5,116.3 113,116.5 90.7,186.3 161.5,87.4 124.8,86.1 149.4,31.4 160.6,31.4 139.4,78.1 
		172.6,79.2 82,204.5 107,120.1 70.3,119.9 93.6,41.4 	"/>
	<path class="st5" d="M102.8,196.1c3.8,0.5,7.6,0.8,11.6,0.8c45.1,0,81.7-35.4,81.7-79c0-25.3-12.3-47.9-31.5-62.3l-3.1,7.1
		c17.8,13,29.2,33.3,29.2,56.3c0,39.1-33.4,70.9-74.6,70.9c-2.8,0-5.6-0.1-8.4-0.4L102.8,196.1z"/>
</g>
</svg>
