<svg xmlns="http://www.w3.org/2000/svg" viewBox="0 0 163.25 173.09"><defs><style>.cls-1{fill:#fff;}</style></defs><g id="Layer_2" data-name="Layer 2"><g id="Layer_1-2" data-name="Layer 1"><path class="cls-1" d="M48.45,151.43A72.32,72.32,0,0,1,49.91,22.21l3.46-11.62a81.66,81.66,0,0,0-7.62,149.94Z"/><path class="cls-1" d="M132.54,23.38A81.66,81.66,0,0,1,62.92,166.66l3.28-4.49a76.55,76.55,0,0,0,64.11-134Z"/><polygon class="cls-1" points="68.08 6.68 44.86 84.87 80.38 85.14 58.03 154.93 128.83 55.98 92.13 54.67 116.79 0 127.96 0 106.77 46.7 140.01 47.86 49.32 173.09 74.41 88.75 37.68 88.56 61.59 8.04 68.08 6.68"/></g></g></svg>