<?xml version="1.0" encoding="UTF-8" standalone="no"?><!DOCTYPE svg PUBLIC "-//W3C//DTD SVG 1.1//EN" "http://www.w3.org/Graphics/SVG/1.1/DTD/svg11.dtd"><svg width="100%" height="100%" viewBox="0 0 533 640" version="1.1" xmlns="http://www.w3.org/2000/svg" xmlns:xlink="http://www.w3.org/1999/xlink" xml:space="preserve" xmlns:serif="http://www.serif.com/" style="fill-rule:evenodd;clip-rule:evenodd;stroke-linejoin:round;stroke-miterlimit:2;"><path d="M94.066,0.213c-5.065,0.1 -10.038,0.601 -14.883,1.47c-22.34,3.34 -39.951,11.53 -52.838,24.232c-12.268,12.092 -20.471,28.446 -24.025,49.355c-1.51,6.693 -2.312,13.648 -2.32,20.775l-0,213.003c-0,1.619 0.123,3.212 0.361,4.772c0.684,8.469 4.012,14.504 8.752,18.798c2.928,2.652 6.586,4.688 10.914,6.045c3.692,1.505 7.718,2.335 11.923,2.335c2.348,-0.023 4.681,-0.307 6.958,-0.846c1.281,-0.183 2.512,-0.418 3.692,-0.703l0,201.388l-20.182,40.353c-0.736,1.478 -1.119,3.108 -1.118,4.76l0,42.601c0,5.842 4.808,10.65 10.65,10.65l383.404,-0c5.843,-0 10.65,-4.808 10.65,-10.65l0,-42.601c0.002,-1.652 -0.381,-3.282 -1.118,-4.76l-20.182,-40.353l0,-29.437l31.95,-0c52.561,-0.059 95.793,-43.291 95.851,-95.851l0,-127.802c-0.058,-52.56 -43.29,-95.792 -95.851,-95.851l-31.95,0l0,-43.892c5.123,-1.444 9.327,-3.836 12.626,-7.003c5.574,-5.35 9.047,-13.184 8.898,-24.256c0.001,0.075 0.001,-21.755 0.001,-21.755c0.19,-31.821 -8.744,-54.894 -24.832,-70.437c-15.936,-15.395 -39.348,-23.662 -69.793,-24.548c-0.111,-0.003 -0.222,-0.005 -0.333,-0.005l-230.952,0c-0.07,0 -0.141,0.001 -0.211,0.002c-2.045,0.038 -4.058,0.108 -6.042,0.211Zm289.338,149.356l-58.34,-0c-0,-0 -45.542,100.712 -45.542,100.712l87.756,3.649l-249.807,348.411c-0,-0 20.229,-63.452 21.878,-68.819c-0,-0 53.206,-173.223 53.206,-173.223l-86.706,0l61.278,-208.626l-16.912,0l-0,49.805c-0,0.46 -0.028,0.92 -0.083,1.377c-1.219,10.072 -4.687,17.626 -9.735,22.798c-5.496,5.632 -12.995,8.903 -22.926,8.838c-10.007,0.517 -17.86,-2.16 -23.466,-7.41c-5.441,-5.095 -9.217,-13.066 -9.433,-25.021c-0.001,-0.069 -0.002,-0.138 -0.002,-0.207c0,0 0,-50.18 0,-50.18c0,0 -19.254,0 -19.254,0c0,37.514 0,154.375 0,156.42c0.023,4.186 -0.472,7.937 -1.415,11.275l-0,223.982c-0.002,1.653 -0.389,3.283 -1.129,4.761l-13.59,27.189l64.877,0l-6.785,21.301l-64.674,-0l0,21.3l362.104,-0l0,-29.437l-20.182,-40.353c-0.737,-1.479 -1.12,-3.109 -1.118,-4.761l-0,-393.781Zm-232.446,425.731l125.945,0l-0,21.301l-141.217,-0l15.272,-21.301Zm360.247,-159.751c-0.046,40.879 -33.671,74.504 -74.551,74.55l-31.95,0l0,-21.3l31.95,0c29.2,-0.035 53.216,-24.051 53.251,-53.25l0,-127.802c-0.035,-29.199 -24.051,-53.215 -53.251,-53.25l-31.95,-0l0,-21.3l31.95,-0c40.88,0.046 74.505,33.671 74.551,74.55l0,127.802Zm-157.017,-390.007c23.292,8.057 41.51,27.405 47.975,51.37c0.81,5.547 1.19,11.538 1.15,17.976c-0,0.023 -0,0.047 -0,0.071l-0,21.931c-0,0.052 0,0.104 0.001,0.156c0.045,3.279 -0.203,5.839 -1.853,7.422c-1.808,1.735 -4.635,2.08 -8.062,2.184c-0.014,0 -75.729,0 -75.729,0c-4.501,0 -8.586,2.636 -10.44,6.737l-0.701,1.549l-0.025,0.019l-2.361,5.258l-59.488,131.553l79.272,3.296c-27.995,39.045 -97.275,135.67 -142.088,198.172l41.728,-135.853l-87.102,-0l36.179,-123.177l0,0l19.058,-64.883l-0,-0l1.727,-5.879c1.017,-3.464 0.342,-7.205 -1.821,-10.095c-2.164,-2.891 -5.563,-4.592 -9.173,-4.592l-43.678,-0c-0.118,-0 -0.235,0.001 -0.352,0.005l-0.008,0c-0.392,0 -0.782,0.033 -1.168,0.096c-5.607,0.747 -9.931,5.547 -9.931,11.357l0,60.546c-0.564,4.309 -1.467,7.696 -4.022,9.503c-1.513,1.071 -3.508,1.347 -5.887,1.309c-0.292,-0.005 -0.583,0.001 -0.874,0.019c-2.173,0.131 -4.102,0.204 -5.596,-0.432c-0.909,-0.662 -1.711,-1.462 -2.373,-2.37c-0.823,-1.719 -1.002,-4.088 -1.058,-7.011c-0.001,-0.034 -0.001,-61.564 -0.001,-61.564c0,-6.328 -5.13,-11.458 -11.458,-11.458l-42.171,-0c-0.118,-0 -0.235,0.001 -0.352,0.005l-0.007,0c-0.393,0 -0.783,0.033 -1.169,0.096c-5.606,0.747 -9.931,5.547 -9.931,11.357l0,167.906c0,0.023 0.001,0.047 0.001,0.071c0.008,1.374 -0.029,2.635 -0.206,3.756c-0.461,1.609 -1.296,3.068 -2.402,4.275c-1.671,1.135 -4.043,1.404 -6.916,1.474c-3.506,-0.106 -6.479,-0.344 -8.378,-2.064c-1.51,-1.368 -1.497,-3.68 -1.293,-6.762c0.017,-0.253 0.025,-0.506 0.025,-0.759l0,-208.081c0.054,-14.422 2.005,-26.83 6.004,-37.203c7.252,-14.373 19.026,-26.147 33.404,-33.402c10.584,-4.147 23.218,-6.231 37.775,-6.509c0.016,-0 223.616,-0 230.687,-0c8.353,0.251 16.064,1.101 23.088,2.625Zm50.516,230.255l31.95,0c17.528,0 31.951,14.423 31.951,31.95l-0,127.802c-0,17.527 -14.423,31.95 -31.951,31.95l-31.95,-0l0,-191.702Z" style="fill:#202d60;"/></svg>