<?xml version="1.0" encoding="UTF-8" standalone="no"?><!DOCTYPE svg PUBLIC "-//W3C//DTD SVG 1.1//EN" "http://www.w3.org/Graphics/SVG/1.1/DTD/svg11.dtd"><svg width="100%" height="100%" viewBox="0 0 610 247" version="1.1" xmlns="http://www.w3.org/2000/svg" xmlns:xlink="http://www.w3.org/1999/xlink" xml:space="preserve" xmlns:serif="http://www.serif.com/" style="fill-rule:evenodd;clip-rule:evenodd;stroke-linejoin:round;stroke-miterlimit:2;"><path id="ExternalAffairs" d="M602.081,165.775c-0,0 -29.663,0 -29.663,0c-3.858,7.821 -11.391,13.163 -20.116,13.975c1.508,16.088 -12.525,29.5 -28.5,27.263c-2.042,15.65 -18.459,25.708 -33.325,20.491c-2.788,11.025 -12.979,18.871 -24.342,18.871c-6.737,0 -13.075,-2.633 -17.846,-7.404l-4.158,-4.158l-4.158,4.158c-13.509,13.525 -37.442,7.104 -42.171,-11.467c-13.738,4.796 -29.109,-3.316 -32.754,-17.462c-19.125,6.771 -38.005,-11.604 -32.334,-30.892c-7.437,-1.7 -13.491,-6.542 -16.871,-13.371c-0.09,-0.217 -0.178,-0.436 -0.191,-0.704l-80.454,-36.511l-2.168,61.86l-233.03,-168.759l156.931,46.691l0.362,-68.356c-0,-0 120.78,36.882 149.263,44.258c17.756,4.599 21.566,3.55 33.637,-5.5c5.063,-3.795 9.617,-8.229 14.217,-12.554c7.746,-7.275 17.283,-17.291 28.767,-17.291l71.004,-0c0.017,-0 0.029,-0.005 0.042,-0.005l51.895,0c11.484,0 21.021,10.017 28.767,17.296c4.271,4.009 8.504,8.104 13.125,11.717c3.633,2.842 8.25,6.337 13.096,6.337l40.975,0c1.405,0 2.607,0.315 3.605,0.854c1.23,0.62 2.137,1.564 2.746,2.804c0.624,1.176 0.936,2.526 0.936,3.876l0,106.452c0,1.457 -0.364,2.915 -1.092,4.154c-0.642,1.172 -1.556,2.039 -2.741,2.602c-0.967,0.491 -2.119,0.775 -3.454,0.775Zm-152.629,53.05c-6.267,-6.267 -1.738,-17.375 7.179,-17.375c2.687,0 5.292,1.075 7.187,2.979l9.571,9.563c9.142,9.308 -5.191,23.6 -14.437,14.337c-0,0 -9.488,-9.487 -9.5,-9.504Zm135.843,-159.5c4.514,0.224 6.763,2.712 7.205,7.006l0,77.377c-0.441,4.287 -2.684,6.774 -7.185,7.005l-10.567,-0c-0.792,-5.105 -3.084,-10.009 -7.009,-13.942l-27.016,-27.025c-15.93,-15.925 -44.013,-3.642 -42.9,18.967c-15.575,0.7 -26.792,15.725 -23.288,30.854c-12.596,2.408 -21.296,14.2 -20.121,26.921c-17.683,1.537 -28.183,21.07 -19.987,36.725l-5.113,5.104c-9.271,9.271 -23.65,-5.054 -14.412,-14.363l39.121,-39.121c6.866,-6.866 -3.784,-17.529 -10.655,-10.654l-46.708,46.717l-0.008,-0c-1.921,1.929 -4.475,2.987 -7.196,2.987c-8.913,0.009 -13.446,-11.116 -7.171,-17.391l46.696,-46.696c6.867,-6.867 -3.792,-17.529 -10.654,-10.654l-54.338,54.341c-9.287,9.292 -23.658,-5.125 -14.371,-14.412l54.321,-54.321c6.867,-6.867 -3.783,-17.533 -10.654,-10.654l-47.746,47.746c-9.287,9.254 -23.641,-5.134 -14.362,-14.413l74.087,-74.091l38.159,-0c13.808,12.987 33.404,23.954 52.991,19.891c8.6,-1.787 16.984,-6.808 20.634,-15.1c3.937,-8.95 0.737,-18.741 -5.942,-25.416l-28.733,-28.734l23.745,0c4.171,0 8.546,4.359 11.459,6.859c4.637,3.979 8.975,8.3 13.491,12.416c8.25,7.529 18.213,16.071 30.038,16.071l24.189,0Zm-113.097,132.163c-9.28,-9.288 5.104,-23.675 14.383,-14.388c0.012,0.017 19.408,19.408 19.412,19.417c6.284,6.266 1.684,17.366 -7.191,17.366l-0.004,0c-2.709,0 -5.267,-1.058 -7.196,-2.987c-0.004,-0.013 -19.388,-19.392 -19.404,-19.408Zm62.295,-2.171c-3.97,3.962 -10.42,3.971 -14.387,-0l-28.254,-28.254c-9.288,-9.288 5.104,-23.667 14.387,-14.388c0.017,0.017 28.254,28.246 28.254,28.246c3.975,3.971 3.975,10.425 0,14.396Zm-255.034,-141.868l-115.295,-34.082l-0.499,66.094l-129.871,-41.585l184.123,131.743l2.446,-68.292l95.079,42.889l-0.016,0.036l0.072,-0.163c1.178,-2.654 2.85,-5.135 5.025,-7.314l76.295,-76.304c1.417,-1.417 3.33,-2.208 5.33,-2.208l44.333,-0c4.296,-0 6.962,3.929 9.908,6.5c3.334,2.904 6.896,5.566 10.713,7.804c5.304,3.112 11.171,5.433 17.316,6.15c3.205,0.371 6.525,0.329 9.684,-0.413c7.6,-1.791 12.983,-8.325 6.354,-14.941l-35.608,-35.609c-2.334,-2.329 -4.921,-3.775 -10.625,-3.775l-71.046,0c-4.167,0 -8.546,4.359 -11.459,6.859c-4.637,3.979 -8.975,8.3 -13.491,12.416c-8.25,7.525 -18.213,16.071 -30.038,16.071c0,0 -9.146,-0.722 -11.918,-1.394c-6.735,-1.63 -27.79,-7.818 -33.77,-9.583l-3.042,-0.899Zm277.634,114.376c-3.833,3.833 -10.529,3.842 -14.37,0.017l-27.042,-27.042c-9.283,-9.287 5.096,-23.675 14.387,-14.392l27.017,27.021c3.971,3.971 3.971,10.434 0.008,14.396Z" style="fill:#202d60;"/></svg>