<?xml version="1.0" encoding="UTF-8" standalone="no"?><!DOCTYPE svg PUBLIC "-//W3C//DTD SVG 1.1//EN" "http://www.w3.org/Graphics/SVG/1.1/DTD/svg11.dtd"><svg width="100%" height="100%" viewBox="0 0 563 698" version="1.1" xmlns="http://www.w3.org/2000/svg" xmlns:xlink="http://www.w3.org/1999/xlink" xml:space="preserve" xmlns:serif="http://www.serif.com/" style="fill-rule:evenodd;clip-rule:evenodd;stroke-linejoin:round;stroke-miterlimit:2;"><g><path d="M307.884,333.934l-113.008,-0c-1.641,-0 -3.186,-0.774 -4.17,-2.088c-0.983,-1.313 -1.29,-3.014 -0.827,-4.589l79.899,-272.023c0.005,-0.015 0.009,-0.03 0.014,-0.045c-0,-0 11.893,-39.187 11.893,-39.187l3.724,-12.303c0.665,-2.196 2.69,-3.699 4.985,-3.699l213.472,0c-2.877,0 8.49,0 8.49,0c1.763,-0 3.407,0.893 4.368,2.372c0.96,1.479 1.107,3.344 0.39,4.955l-25.777,57.893c-0.004,0.009 -0.008,0.019 -0.012,0.028c-0,-0 -48.05,106.259 -48.051,106.259l113.803,4.731c1.912,0.08 3.627,1.201 4.465,2.922c0.839,1.72 0.667,3.762 -0.448,5.317l-345.893,482.423c-1.493,2.083 -4.279,2.769 -6.57,1.62c-2.29,-1.15 -3.403,-3.795 -2.625,-6.237c0,-0 27.995,-87.809 30.277,-95.237l71.601,-233.112Zm-13.625,-323.517l210.076,-0c0,-0 -22.508,50.553 -22.508,50.553c0,-0 -51.223,113.274 -51.223,113.274c-0.713,1.577 -0.596,3.405 0.312,4.878c0.908,1.474 2.489,2.4 4.218,2.472l111.874,4.651c0,0 -321.075,447.81 -321.075,447.81c8.293,-26.037 18.936,-59.487 20.307,-63.95c0,-0 59.674,-194.279 71.609,-233.135l2.04,-6.644c0.164,-0.504 0.252,-1.042 0.252,-1.601c0,-2.876 -2.332,-5.208 -5.208,-5.208l-113.099,-0c0,-0 77.932,-265.325 77.932,-265.325l11.889,-39.171l2.604,-8.604Zm5.836,474.685l-0.001,0.004c0.565,-2.819 -1.265,-5.566 -4.084,-6.13c-2.818,-0.565 -5.565,1.265 -6.13,4.084c-0.916,4.574 1.333,9.266 5.591,11.376c2.246,1.113 4.726,1.346 7.02,0.803c2.798,-0.661 4.532,-3.469 3.871,-6.267c-0.662,-2.797 -3.47,-4.531 -6.267,-3.87Zm18.43,-7.828c1.997,-2.785 4.021,-5.608 6.07,-8.465c1.674,-2.336 1.138,-5.593 -1.198,-7.268c-2.337,-1.675 -5.593,-1.138 -7.268,1.198c-2.049,2.858 -4.073,5.681 -6.07,8.466c-1.675,2.336 -1.138,5.592 1.198,7.267c2.336,1.675 5.593,1.139 7.268,-1.198Zm-19.366,-24.6c-1.098,3.575 -2.123,6.911 -3.059,9.957c-0.844,2.748 0.702,5.664 3.45,6.508c2.748,0.844 5.664,-0.701 6.508,-3.449c0.935,-3.046 1.96,-6.383 3.058,-9.958c0.844,-2.748 -0.701,-5.664 -3.449,-6.508c-2.748,-0.844 -5.664,0.702 -6.508,3.45Zm37.575,-0.796c2.007,-2.799 4.031,-5.622 6.07,-8.466c1.675,-2.336 1.138,-5.592 -1.198,-7.267c-2.336,-1.675 -5.593,-1.139 -7.268,1.198c-2.039,2.843 -4.063,5.666 -6.069,8.465c-1.675,2.336 -1.139,5.593 1.197,7.268c2.337,1.675 5.593,1.138 7.268,-1.198Zm-28.4,-29.077c-1.042,3.394 -2.064,6.721 -3.058,9.958c-0.844,2.747 0.701,5.664 3.449,6.508c2.748,0.844 5.664,-0.702 6.508,-3.45c0.995,-3.237 2.016,-6.564 3.059,-9.957c0.844,-2.748 -0.702,-5.664 -3.45,-6.508c-2.748,-0.844 -5.664,0.701 -6.508,3.449Zm46.609,3.68c2.014,-2.809 4.038,-5.631 6.07,-8.465c1.675,-2.337 1.138,-5.593 -1.198,-7.268c-2.336,-1.675 -5.593,-1.138 -7.268,1.198c-2.032,2.834 -4.056,5.657 -6.069,8.465c-1.675,2.337 -1.139,5.593 1.198,7.268c2.336,1.675 5.592,1.138 7.267,-1.198Zm-37.433,-33.552c-1.022,3.328 -2.044,6.653 -3.059,9.957c-0.844,2.748 0.702,5.664 3.45,6.508c2.748,0.844 5.664,-0.702 6.508,-3.449c1.015,-3.305 2.036,-6.63 3.058,-9.958c0.844,-2.748 -0.701,-5.664 -3.449,-6.508c-2.748,-0.844 -5.664,0.702 -6.508,3.45Zm55.642,8.155c2.02,-2.816 4.044,-5.639 6.07,-8.465c1.675,-2.336 1.138,-5.593 -1.198,-7.268c-2.336,-1.675 -5.593,-1.138 -7.267,1.198c-2.027,2.826 -4.051,5.649 -6.07,8.466c-1.675,2.336 -1.138,5.592 1.198,7.267c2.336,1.675 5.592,1.139 7.267,-1.198Zm-46.467,-38.028c-1.004,3.271 -2.026,6.597 -3.058,9.958c-0.844,2.747 0.701,5.664 3.449,6.508c2.748,0.844 5.664,-0.702 6.508,-3.45c1.033,-3.361 2.054,-6.686 3.059,-9.957c0.844,-2.748 -0.702,-5.664 -3.45,-6.508c-2.748,-0.844 -5.664,0.701 -6.508,3.449Zm64.677,12.632c2.025,-2.825 4.048,-5.647 6.069,-8.466c1.675,-2.336 1.138,-5.593 -1.198,-7.267c-2.336,-1.675 -5.592,-1.139 -7.267,1.197c-2.021,2.819 -4.045,5.641 -6.07,8.466c-1.675,2.336 -1.138,5.593 1.198,7.268c2.336,1.674 5.593,1.138 7.268,-1.198Zm18.209,-25.397c2.03,-2.832 4.054,-5.655 6.069,-8.465c1.675,-2.337 1.138,-5.593 -1.198,-7.268c-2.336,-1.675 -5.592,-1.138 -7.267,1.198c-2.015,2.81 -4.039,5.633 -6.07,8.465c-1.675,2.337 -1.138,5.593 1.198,7.268c2.336,1.675 5.593,1.138 7.268,-1.198Zm-73.71,-17.107c-0.973,3.166 -1.995,6.495 -3.059,9.957c-0.844,2.748 0.702,5.664 3.45,6.508c2.748,0.844 5.664,-0.701 6.508,-3.449c1.063,-3.462 2.086,-6.792 3.058,-9.958c0.844,-2.748 -0.701,-5.664 -3.449,-6.508c-2.748,-0.844 -5.664,0.702 -6.508,3.45Zm91.919,-8.289c2.037,-2.842 4.061,-5.665 6.069,-8.466c1.675,-2.336 1.139,-5.593 -1.198,-7.268c-2.336,-1.675 -5.592,-1.138 -7.267,1.198c-2.008,2.801 -4.032,5.624 -6.07,8.466c-1.675,2.336 -1.138,5.592 1.198,7.267c2.336,1.675 5.593,1.139 7.268,-1.197Zm-82.744,-21.584c-0.662,2.156 -1.708,5.562 -3.058,9.958c-0.844,2.748 0.701,5.664 3.449,6.508c2.748,0.844 5.664,-0.702 6.508,-3.45c1.35,-4.395 2.397,-7.802 3.059,-9.957c0.844,-2.748 -0.702,-5.664 -3.45,-6.508c-2.748,-0.844 -5.664,0.701 -6.508,3.449Zm-22.701,4.1l10.417,-0c2.874,-0 5.208,-2.334 5.208,-5.209c-0,-2.874 -2.334,-5.208 -5.208,-5.208l-10.417,-0c-2.875,-0 -5.208,2.334 -5.208,5.208c-0,2.875 2.333,5.209 5.208,5.209Zm-31.25,-0l10.417,-0c2.874,-0 5.208,-2.334 5.208,-5.209c-0,-2.874 -2.334,-5.208 -5.208,-5.208l-10.417,-0c-2.875,-0 -5.208,2.334 -5.208,5.208c-0,2.875 2.333,5.209 5.208,5.209Zm-53.817,-10.417c0.276,-2.861 -1.822,-5.409 -4.683,-5.685c-2.862,-0.277 -5.409,1.822 -5.685,4.683c-0.248,2.56 0.46,5.148 2.029,7.244c1.967,2.628 5.057,4.175 8.339,4.175c-0,-0 0.608,-0 1.734,-0c2.874,-0 5.208,-2.334 5.208,-5.209c0,-2.874 -2.334,-5.208 -5.208,-5.208l-1.734,-0Zm22.567,10.417l10.417,-0c2.874,-0 5.208,-2.334 5.208,-5.209c-0,-2.874 -2.334,-5.208 -5.208,-5.208l-10.417,-0c-2.875,-0 -5.208,2.334 -5.208,5.208c-0,2.875 2.333,5.209 5.208,5.209Zm186.154,-7.913c2.046,-2.854 4.07,-5.677 6.069,-8.466c1.675,-2.336 1.139,-5.592 -1.197,-7.267c-2.337,-1.675 -5.593,-1.138 -7.268,1.198c-1.999,2.788 -4.023,5.611 -6.07,8.465c-1.675,2.336 -1.138,5.593 1.198,7.268c2.336,1.675 5.593,1.138 7.268,-1.198Zm-210.187,-34.477c-1.062,3.616 -2.044,6.96 -2.935,9.995c-0.81,2.758 0.771,5.655 3.529,6.465c2.758,0.81 5.655,-0.772 6.465,-3.53c0.891,-3.034 1.874,-6.378 2.936,-9.994c0.81,-2.758 -0.772,-5.655 -3.53,-6.465c-2.758,-0.81 -5.655,0.771 -6.465,3.529Zm228.396,9.08c2.06,-2.873 4.084,-5.696 6.07,-8.465c1.675,-2.336 1.138,-5.593 -1.198,-7.268c-2.336,-1.675 -5.593,-1.138 -7.268,1.198c-1.985,2.769 -4.01,5.592 -6.07,8.466c-1.675,2.336 -1.138,5.592 1.198,7.267c2.336,1.675 5.593,1.138 7.268,-1.198Zm-219.589,-39.063c-1.008,3.432 -1.988,6.769 -2.935,9.994c-0.811,2.758 0.771,5.655 3.529,6.465c2.758,0.811 5.655,-0.771 6.465,-3.529c0.947,-3.226 1.927,-6.562 2.936,-9.994c0.81,-2.758 -0.772,-5.655 -3.53,-6.465c-2.758,-0.811 -5.655,0.771 -6.465,3.529Zm237.798,13.667c2.086,-2.91 4.111,-5.734 6.07,-8.466c1.675,-2.336 1.138,-5.592 -1.198,-7.267c-2.336,-1.675 -5.593,-1.139 -7.268,1.197c-1.958,2.732 -3.983,5.556 -6.07,8.466c-1.675,2.336 -1.138,5.593 1.198,7.268c2.336,1.675 5.593,1.138 7.268,-1.198Zm18.209,-25.397c1.642,-2.289 3.205,-4.469 4.684,-6.533c0.945,-1.318 1.551,-2.81 1.809,-4.354c0.474,-2.835 -1.444,-5.521 -4.279,-5.995c-2.835,-0.473 -5.522,1.444 -5.995,4.279l-4.684,6.533c-1.675,2.336 -1.139,5.593 1.198,7.268c2.336,1.675 5.592,1.138 7.267,-1.198Zm-247.2,-18.253c-0.992,3.376 -1.971,6.711 -2.936,9.994c-0.81,2.758 0.772,5.655 3.53,6.465c2.758,0.81 5.655,-0.771 6.465,-3.529c0.964,-3.283 1.944,-6.618 2.935,-9.995c0.81,-2.758 -0.771,-5.655 -3.529,-6.465c-2.758,-0.81 -5.655,0.772 -6.465,3.53Zm231.856,-5.256c-3.054,-0.127 -6.571,-0.274 -10.408,-0.433c-2.872,-0.12 -5.3,2.115 -5.42,4.987c-0.119,2.872 2.116,5.301 4.988,5.42c3.836,0.16 7.353,0.306 10.407,0.433c2.872,0.12 5.301,-2.115 5.421,-4.987c0.119,-2.872 -2.116,-5.301 -4.988,-5.42Zm-31.223,-1.299c-3.442,-0.143 -6.933,-0.288 -10.408,-0.432c-2.872,-0.12 -5.3,2.115 -5.42,4.987c-0.119,2.872 2.116,5.301 4.988,5.42c3.474,0.145 6.965,0.29 10.407,0.433c2.872,0.119 5.301,-2.115 5.421,-4.987c0.119,-2.873 -2.116,-5.301 -4.988,-5.421Zm-31.223,-1.298c-3.717,-0.154 -7.222,-0.3 -10.408,-0.433c-2.872,-0.119 -5.3,2.116 -5.42,4.988c-0.119,2.872 2.116,5.301 4.988,5.42c3.185,0.133 6.69,0.278 10.407,0.433c2.872,0.119 5.301,-2.116 5.42,-4.988c0.12,-2.872 -2.115,-5.3 -4.987,-5.42Zm-21.596,2.91c0.996,-2.202 2.459,-5.438 4.292,-9.491c1.185,-2.619 0.02,-5.708 -2.599,-6.892c-2.62,-1.184 -5.708,-0.019 -6.892,2.6c-1.833,4.053 -3.296,7.289 -4.292,9.491c-1.184,2.619 -0.02,5.707 2.6,6.892c2.619,1.184 5.707,0.019 6.891,-2.6Zm-139.007,-25.041c-0.983,3.345 -1.962,6.68 -2.936,9.995c-0.81,2.758 0.771,5.655 3.529,6.465c2.759,0.81 5.655,-0.772 6.466,-3.53c0.973,-3.315 1.953,-6.649 2.935,-9.994c0.81,-2.758 -0.771,-5.655 -3.529,-6.465c-2.758,-0.811 -5.655,0.771 -6.465,3.529Zm151.883,-3.433c1.368,-3.025 2.804,-6.199 4.292,-9.491c1.185,-2.619 0.02,-5.707 -2.599,-6.892c-2.62,-1.184 -5.708,-0.019 -6.892,2.6c-1.489,3.292 -2.924,6.466 -4.292,9.491c-1.184,2.619 -0.02,5.707 2.6,6.892c2.619,1.184 5.707,0.019 6.891,-2.6Zm-143.077,-26.551c-0.974,3.319 -1.954,6.654 -2.935,9.995c-0.81,2.758 0.771,5.655 3.529,6.465c2.758,0.81 5.655,-0.771 6.465,-3.529c0.982,-3.342 1.961,-6.676 2.936,-9.995c0.81,-2.758 -0.771,-5.655 -3.53,-6.465c-2.758,-0.81 -5.654,0.771 -6.465,3.529Zm155.953,-1.923c1.413,-3.125 2.847,-6.295 4.292,-9.491c1.185,-2.62 0.02,-5.708 -2.599,-6.892c-2.62,-1.184 -5.708,-0.02 -6.892,2.6c-1.445,3.196 -2.879,6.366 -4.292,9.491c-1.185,2.619 -0.02,5.707 2.6,6.892c2.619,1.184 5.707,0.019 6.891,-2.6Zm-147.146,-28.06c-0.966,3.289 -1.945,6.623 -2.935,9.995c-0.81,2.758 0.771,5.655 3.529,6.465c2.758,0.81 5.655,-0.772 6.465,-3.53c0.99,-3.371 1.97,-6.706 2.936,-9.994c0.81,-2.758 -0.772,-5.655 -3.53,-6.465c-2.758,-0.81 -5.655,0.771 -6.465,3.529Zm160.022,-0.414c1.44,-3.183 2.873,-6.353 4.292,-9.491c1.185,-2.62 0.02,-5.708 -2.599,-6.892c-2.62,-1.184 -5.708,-0.02 -6.892,2.6c-1.419,3.138 -2.853,6.308 -4.292,9.491c-1.184,2.619 -0.02,5.707 2.6,6.892c2.619,1.184 5.707,0.019 6.891,-2.6Zm-151.215,-29.569c-0.951,3.237 -1.931,6.573 -2.936,9.994c-0.81,2.758 0.772,5.655 3.53,6.465c2.758,0.81 5.655,-0.771 6.465,-3.529c1.005,-3.421 1.985,-6.757 2.935,-9.995c0.811,-2.758 -0.771,-5.655 -3.529,-6.465c-2.758,-0.81 -5.655,0.772 -6.465,3.53Zm164.091,1.095c1.476,-3.263 2.91,-6.435 4.292,-9.491c1.185,-2.62 0.02,-5.708 -2.599,-6.892c-2.62,-1.184 -5.708,-0.02 -6.892,2.6c-1.382,3.056 -2.817,6.228 -4.292,9.491c-1.185,2.619 -0.02,5.707 2.6,6.892c2.619,1.184 5.707,0.019 6.891,-2.6Zm-155.284,-31.078c-0.907,3.088 -1.889,6.43 -2.936,9.994c-0.81,2.758 0.771,5.655 3.53,6.465c2.758,0.81 5.654,-0.771 6.465,-3.529c1.046,-3.565 2.028,-6.907 2.935,-9.995c0.81,-2.758 -0.771,-5.655 -3.529,-6.465c-2.758,-0.81 -5.655,0.772 -6.465,3.53Zm168.16,2.604c1.632,-3.608 3.077,-6.804 4.292,-9.491c1.185,-2.62 0.02,-5.708 -2.599,-6.892c-2.62,-1.184 -5.708,-0.02 -6.892,2.6c-1.216,2.687 -2.66,5.883 -4.292,9.491c-1.185,2.619 -0.02,5.707 2.6,6.892c2.619,1.184 5.707,0.019 6.891,-2.6Zm-151.271,-23.127c2.797,0.001 5.111,-2.225 5.2,-5.042c0.092,-2.873 -2.167,-5.279 -5.04,-5.37c-2.677,-0.085 -4.813,0.667 -6.512,1.965c-1.606,1.227 -2.876,3.011 -3.627,5.446l-1.039,3.535c-0.81,2.758 0.771,5.654 3.529,6.465c2.758,0.81 5.655,-0.772 6.465,-3.53l1.005,-3.419l0.019,-0.05Zm151.148,-10.406c-0.305,-0.01 -0.621,-0.013 -0.948,-0.008c0.035,-0.001 -9.646,-0.001 -9.646,-0.001c-2.875,0 -5.209,2.334 -5.209,5.209c0,2.874 2.334,5.208 5.209,5.208l9.718,-0l0.52,0.003c2.873,0.098 5.285,-2.155 5.383,-5.028c0.099,-2.872 -2.154,-5.285 -5.027,-5.383Zm-125.178,-0.009l-10.417,0c-2.874,0 -5.208,2.334 -5.208,5.209c0,2.874 2.334,5.208 5.208,5.208l10.417,-0c2.875,-0 5.208,-2.334 5.208,-5.208c0,-2.875 -2.333,-5.209 -5.208,-5.209Zm62.5,0l-10.417,0c-2.874,0 -5.208,2.334 -5.208,5.209c0,2.874 2.334,5.208 5.208,5.208l10.417,-0c2.875,-0 5.208,-2.334 5.208,-5.208c0,-2.875 -2.333,-5.209 -5.208,-5.209Zm-31.25,0l-10.417,0c-2.874,0 -5.208,2.334 -5.208,5.209c0,2.874 2.334,5.208 5.208,5.208l10.417,-0c2.875,-0 5.208,-2.334 5.208,-5.208c0,-2.875 -2.333,-5.209 -5.208,-5.209Zm62.5,0l-10.417,0c-2.874,0 -5.208,2.334 -5.208,5.209c0,2.874 2.334,5.208 5.208,5.208l10.417,-0c2.875,-0 5.208,-2.334 5.208,-5.208c0,-2.875 -2.333,-5.209 -5.208,-5.209Z" style="fill:#202d60;"/><path d="M31.558,573.533l11.669,6.721c7.364,-2.088 15.699,-2.711 22.6,-1.729c7.021,0.998 22.154,7.608 41.846,16.622c47.745,21.856 121.028,57.96 171.596,69.389c74.304,16.795 188.614,10.898 238.381,-13.017c7.89,-3.791 10.13,-8.705 9.659,-12.861c-0.295,-2.608 -1.736,-5.404 -4.647,-8.03c-2.964,-2.675 -7.732,-5.406 -13.931,-7.939c-1.892,-0.773 -3.927,-1.534 -6.089,-2.278c0.915,-0.731 1.702,-1.455 2.37,-2.169c2.45,-2.618 3.579,-5.273 3.832,-7.829c0.267,-2.692 -0.42,-5.389 -2.136,-8.031c-1.826,-2.811 -5.018,-5.682 -9.346,-8.447c-17.859,-11.412 -57.429,-22.558 -77.703,-35.509c-4.771,-3.048 -8.985,-8.904 -12.792,-16.612c-6.278,-12.711 -11.147,-30.292 -14.179,-50.003c-7.608,-49.472 -3.773,-112.434 20.325,-146.176c1.67,-2.339 1.128,-5.595 -1.212,-7.265c-2.339,-1.671 -5.594,-1.128 -7.265,1.211c-25.374,35.53 -30.155,101.721 -22.143,153.814c3.216,20.914 8.473,39.544 15.135,53.032c4.82,9.759 10.482,16.918 16.524,20.778c20.273,12.951 59.842,24.096 77.701,35.508c2.437,1.556 4.415,3.075 5.709,4.652c0.574,0.699 1.087,1.306 1.016,2.022c-0.089,0.9 -0.873,1.643 -1.947,2.571c-1.7,1.471 -4.124,2.929 -7.333,4.434c-22.387,-5.837 -52.06,-9.984 -78.739,-10.09c-24.469,-0.097 -46.434,3.382 -58.56,11.48c-4.563,3.047 -7.345,5.87 -8.778,8.26c-1.583,2.642 -1.887,5.092 -1.434,7.271c0.451,2.17 1.704,4.223 3.968,5.948c2.102,1.601 5.345,3.012 9.596,4.023c26.556,6.311 99.319,-1.061 134.817,-15.891c5.522,1.55 10.494,3.211 14.723,4.939c2.805,1.146 5.265,2.317 7.308,3.511c1.676,0.979 3.046,1.944 4.024,2.938c0.252,0.256 0.533,0.65 0.699,0.897c-0.177,0.19 -0.477,0.494 -0.749,0.707c-0.76,0.599 -1.74,1.171 -2.935,1.745c-48.341,23.229 -159.397,28.559 -231.573,12.246c-49.981,-11.297 -122.365,-47.098 -169.556,-68.7c-20.995,-9.61 -37.23,-16.4 -44.715,-17.464c-10.844,-1.543 -24.636,0.242 -34.897,4.928c-0.283,0.129 -0.562,0.26 -0.839,0.393Zm-9.724,6.788c-2.333,2.405 -4.045,5.099 -4.975,8.018c-2.063,6.481 -0.676,14.523 7.58,23.586c10.092,11.078 31.579,24.585 70.798,39.757c2.681,1.037 5.7,-0.297 6.737,-2.978c1.037,-2.681 -0.298,-5.7 -2.979,-6.737c-36.921,-14.283 -57.355,-26.628 -66.856,-37.057c-4.812,-5.282 -6.557,-9.633 -5.354,-13.411c0.666,-2.091 2.104,-3.868 4.032,-5.403c-1.774,-2.036 -6.685,-4.628 -8.983,-5.775Zm449.36,42.623c-18.854,-3.724 -40.702,-6.146 -60.776,-6.225c-21.988,-0.087 -41.837,2.449 -52.734,9.726c-2.058,1.374 -3.629,2.625 -4.723,3.8c-0.257,0.275 -0.52,0.638 -0.721,0.936c0.858,0.591 2.089,1.034 3.574,1.477c3.737,1.116 8.8,1.821 14.787,2.207c26.498,1.709 70.218,-3.028 100.593,-11.921Z" style="fill:#202d60;"/><path d="M14.826,594.099c-0,-0 -5.3,-1.695 -7.718,-3.034c-2.637,-1.46 -6.821,-5.772 -7.09,-9.311c-0.269,-3.539 2.443,-9.897 5.476,-11.924c3.033,-2.027 9.326,-1.804 13.419,-0c15.784,6.957 81.289,41.742 81.289,41.742l5.298,-13.479l229.83,98.994l-220.466,-78.568l-5.074,12.908l-80.172,-31.514c-1.558,-1.99 -2.252,-6.38 -1.338,-8.486l-0,-0.001c2.659,0.129 4.609,-0.468 5.215,-1.821c1.21,-2.699 -3.384,-7.39 -10.253,-10.469c-6.869,-3.079 -13.428,-3.388 -14.637,-0.69c-1.027,2.291 2.127,6.017 7.305,8.975c-1.326,2.931 -0.948,5.03 -1.084,6.678Z" style="fill:#202d60;"/></g></svg>