<?xml version="1.0" encoding="UTF-8" standalone="no"?><!DOCTYPE svg PUBLIC "-//W3C//DTD SVG 1.1//EN" "http://www.w3.org/Graphics/SVG/1.1/DTD/svg11.dtd"><svg width="100%" height="100%" viewBox="0 0 613 478" version="1.1" xmlns="http://www.w3.org/2000/svg" xmlns:xlink="http://www.w3.org/1999/xlink" xml:space="preserve" xmlns:serif="http://www.serif.com/" style="fill-rule:evenodd;clip-rule:evenodd;stroke-miterlimit:10;"><g><path d="M206.063,430.031l200.856,41.923l200.855,-41.923l-0,-424.823l-200.855,41.924l-200.856,-41.924l-200.855,41.924l0,424.822l200.855,-41.923Z" style="fill:none;"/><clipPath id="_clip1"><path d="M206.063,430.031l200.856,41.923l200.855,-41.923l-0,-424.823l-200.855,41.924l-200.856,-41.924l-200.855,41.924l0,424.822l200.855,-41.923Z"/></clipPath><g clip-path="url(#_clip1)"><path d="M489.752,299.264l-18.205,25.012l-25.012,-18.205" style="fill:none;stroke:#202d60;stroke-width:14.58px;"/><path d="M76.441,300.774c26.249,8.552 139.807,36.844 191.124,-29.265c51.317,-66.11 254.926,-280.025 214.035,-82.664c-12.056,58.19 -14.641,100.948 -10.053,135.431" style="fill:none;stroke:#202d60;stroke-width:14.58px;stroke-linecap:square;stroke-miterlimit:1.5;stroke-dasharray:14.58,29.17,0,0;"/><path d="M206.063,5.208l0,424.823" style="fill:none;stroke:#202d60;stroke-width:8.33px;stroke-linecap:round;stroke-miterlimit:1.5;"/><path d="M406.919,46.426l-0,425.528" style="fill:none;stroke:#202d60;stroke-width:8.33px;stroke-linecap:round;stroke-miterlimit:1.5;"/><path d="M83.014,89.161l-31.13,111.996l46.344,-0l-28.163,97.102l102.842,-144.055l-42.707,-2.967l24.651,-58.807l-71.837,-3.269Zm9.317,12.858l44.189,2.01c0,0 -17.775,42.407 -17.775,42.407l-6.35,16.063l16.944,1.129l20.559,1.428c0,0 -47.609,66.689 -47.609,66.689c-0,0 7.868,-27.128 7.868,-27.128l4.042,-15.844l-15.971,-0.037l-30,0l24.103,-86.717Z" style="fill:#202d60;stroke:#202d60;stroke-width:1px;stroke-linejoin:round;stroke-miterlimit:2;"/></g><path d="M406.919,41.811l-199.791,-41.701c-0.702,-0.147 -1.427,-0.147 -2.129,-0l-200.855,41.923c-2.414,0.504 -4.144,2.632 -4.144,5.099l0,424.822c0,1.568 0.706,3.052 1.923,4.041c1.217,0.99 2.815,1.378 4.35,1.057l199.79,-41.701l199.791,41.701c0.702,0.147 1.427,0.147 2.129,0l200.855,-41.923c2.414,-0.504 4.144,-2.632 4.144,-5.098l-0,-424.823c-0,-1.568 -0.706,-3.052 -1.923,-4.041c-1.217,-0.989 -2.815,-1.377 -4.35,-1.057l-199.79,41.701Zm-0,10.529l1.064,-0.11c-0,-0 160.592,-33.519 194.582,-40.614c0,0 0,414.181 0,414.181c-27.358,5.711 -181.349,37.852 -195.646,40.836c-0,0 -199.791,-41.701 -199.791,-41.701c-0.702,-0.146 -1.427,-0.146 -2.129,0l-194.582,40.614c-0,0 -0,-414.181 -0,-414.181c-0,0 195.646,-40.836 195.646,-40.836c0,-0 199.791,41.701 199.791,41.701c0.35,0.073 0.707,0.11 1.065,0.11Z" style="fill:#202d60;"/><path d="M516.921,404.869l15.522,-37.296l29.92,71.896l-21.735,-0c-1.354,4.656 -34.567,12.372 -79.875,21.248l-29.424,8.261l-15.846,0l23.928,-76.428l7.345,23.459l16.584,-52.969l13.889,44.361l20.228,-66.933l19.464,64.401Zm-77.51,-1.348l3.538,11.299l-2.7,1.189l-4.375,-1.189l3.537,-11.299Zm93.032,-23.965l10.814,25.987l-6.861,1.858l-8.842,-3.88l-5.926,2.022l10.815,-25.987Zm-69.103,-3.431l7.175,22.919l-5.031,-1.796l-4.731,4.792l-4.589,-2.996l7.176,-22.919Zm34.117,-21.49l11.063,35.333l-5.024,3.286l-6.039,-3.286l-6.094,4.997l-4.968,-4.997l11.062,-35.333Z" style="fill:#202d60;"/></g></svg>