<?xml version="1.0" encoding="UTF-8" standalone="no"?><!DOCTYPE svg PUBLIC "-//W3C//DTD SVG 1.1//EN" "http://www.w3.org/Graphics/SVG/1.1/DTD/svg11.dtd"><svg width="100%" height="100%" viewBox="0 0 362 507" version="1.1" xmlns="http://www.w3.org/2000/svg" xmlns:xlink="http://www.w3.org/1999/xlink" xml:space="preserve" xmlns:serif="http://www.serif.com/" style="fill-rule:evenodd;clip-rule:evenodd;stroke-linejoin:round;stroke-miterlimit:2;"><path id="The-Press" serif:id="The Press" d="M237.512,0c31.219,0.051 56.548,25.411 56.548,56.64c-0,11.575 -3.48,22.344 -9.465,31.306l9.937,-0c2.301,-0 4.166,1.865 4.166,4.166l0,52.954c0,2.302 -1.865,4.167 -4.166,4.167l-6.035,0l-1.829,21.191l0.092,-0.028c15.625,-4.739 32.258,1.476 38.903,15.324c3.627,7.558 3.759,16.23 0.361,24.424c-0.88,2.095 -1.973,4.084 -3.235,5.961c10.932,0.928 20.779,6.925 25.538,16.842c3.589,7.48 3.727,16.397 0.382,24.469c-1.931,4.605 -4.858,8.695 -8.505,12.104c8.262,2.057 15.278,7.171 18.946,14.816c6.897,14.372 -0.531,32.379 -16.542,40.899c7.283,2.425 13.397,7.316 16.751,14.307c7.17,14.939 -0.853,33.74 -17.881,41.912l-44.117,21.17c-1.716,0.824 -3.462,1.472 -5.217,2.024l0.184,0.383l-87.26,41.874c-8.554,4.105 -18.188,5.072 -27.317,2.979c-1.162,7.942 -6.119,15.197 -13.884,18.923l-73.665,35.351c-12.401,5.951 -27.333,0.703 -33.283,-11.698l-54.467,-113.499c-5.948,-12.397 -0.7,-27.329 11.696,-33.278l73.665,-35.35c4.591,-2.203 9.529,-2.854 14.228,-2.192c0.273,-5.613 1.008,-11.844 2.275,-18.931l13.462,-57.853c0.004,-0.02 0.005,-0.04 0.004,-0.06l0.004,-0.078c2.549,-10.808 9.707,-19.738 19.628,-24.499l37.693,-18.088c4.58,-2.198 9.491,-3.291 14.356,-3.242l-3.119,-36.157l-6.036,0c-2.301,0 -4.166,-1.865 -4.166,-4.167l-0,-52.954c-0,-2.301 1.865,-4.166 4.166,-4.166l9.937,-0l-0.07,-0.105c-5.941,-8.941 -9.394,-19.671 -9.394,-31.201c-0,-31.261 25.379,-56.64 56.639,-56.64l0.092,0Zm-151.628,495.161c-7.441,3.571 -16.397,0.424 -19.968,-7.018l-54.467,-113.5c-3.571,-7.441 -0.423,-16.397 7.018,-19.968l73.666,-35.351c7.441,-3.571 16.397,-0.423 19.968,7.018l54.467,113.5c3.571,7.441 0.423,16.397 -7.018,19.968l-73.666,35.351Zm43.63,-69.372c-1.173,0.288 -2.335,0.701 -3.468,1.244c-8.873,4.258 -12.628,14.943 -8.369,23.82c4.26,8.876 14.945,12.632 23.818,8.374c8.877,-4.26 12.632,-14.945 8.372,-23.821c-1.914,-3.989 -5.125,-6.943 -8.885,-8.601l-3.693,8.808l6.964,0.484l-16.768,23.487l4.592,-15.832l-7.556,-0l4.993,-17.963Zm71.537,-227.278l1.058,0.623l42.956,38.588c0.149,0.127 0.302,0.253 0.46,0.361c10.72,7.575 11.899,13.604 4.642,23.917c-2.428,3.453 -5.565,6.114 -9.325,7.919c-7.543,3.619 -16.324,2.985 -22.918,-1.666l-23.405,-16.489l-0.005,0.008c-0.371,-0.262 -0.777,-0.483 -1.216,-0.637c-2.602,-0.914 -5.446,0.45 -6.36,3.052c-0.389,1.106 -0.365,2.255 -0.01,3.282c13.187,47.088 3.994,83.375 -28.109,110.926c-1.756,1.503 -2.202,3.954 -1.248,5.941c0.184,0.383 0.422,0.754 0.713,1.091c1.794,2.092 4.945,2.331 7.033,0.539c19.441,-16.683 31.256,-36.188 35.509,-58.889l7.097,82.249c0.233,2.693 2.487,4.761 5.19,4.761l48.615,-0c1.069,-0 2.069,-0.324 2.896,-0.887l0.766,-0.639c0.001,-0.002 0.003,-0.005 0,-0c1.495,0.818 3.077,1.497 4.719,2.05l-69.364,33.286c-7.464,3.582 -16.009,4.036 -23.818,1.401c-0.376,-1.275 -0.775,-2.549 -1.368,-3.785l-54.461,-113.488c-2.098,-4.373 -5.349,-7.795 -9.175,-10.211c0.067,-5.929 0.764,-12.72 2.165,-20.597l13.431,-57.685l-0.026,-0.006c0.002,-0.006 0.006,-0.008 0.004,-0.011c1.854,-7.859 7.041,-14.346 14.231,-17.796l37.693,-18.089c3.482,-1.67 7.229,-2.434 10.902,-2.279c3.781,0.097 7.481,1.168 10.728,3.16Zm66.479,193.705c-2.131,-1.625 -3.873,-3.698 -5.062,-6.178c-3.999,-8.333 -0.526,-18.651 7.768,-25.184l1.841,-21.327c-4.257,-1.602 -7.738,-4.506 -9.721,-8.519l-0.1,-0.179c-2.736,-5.703 -1.884,-12.371 1.677,-18.088c2.51,-4.083 6.398,-7.679 11.328,-10.112l0.317,-0.169l44.116,-21.17c12.07,-5.793 25.734,-2.492 30.461,7.358c4.727,9.849 -1.244,22.572 -13.317,28.366l-44.117,21.171c-7.037,3.376 -14.617,3.663 -20.644,1.342l-1.841,21.327c1.623,-1.312 3.448,-2.461 5.441,-3.417l44.117,-21.171c12.067,-5.795 25.783,-2.39 30.572,7.591c4.79,9.981 -1.132,22.806 -13.205,28.6l-44.117,21.171c-9.07,4.352 -19.072,3.512 -25.514,-1.412Zm-49.639,1.454l-10.404,-120.568l4.689,3.303c8.408,5.925 19.211,7.363 29.05,4.079c0.37,1.098 0.709,2.201 1.22,3.264c3.89,8.107 11.194,13.572 19.703,15.807c-10.53,9.444 -14.568,23.749 -8.889,35.582c1.859,3.874 4.583,7.095 7.914,9.571l-1.03,11.937c-8.927,9.393 -12,22.602 -6.675,33.698c0.564,1.176 1.207,2.292 1.948,3.327l-37.526,0Zm67.827,-212.239l-0.1,0.043l-44.128,21.176c-4.317,2.071 -7.882,5.206 -10.471,9.036l20.503,18.418c4.418,3.148 7.692,6.448 9.886,9.911l20.087,-9.64l-0.996,11.542l-15.865,7.614c0.371,5.645 -1.729,11.69 -6.311,18.206c-2.228,3.167 -5.012,5.88 -8.134,8.118c0.3,1.214 0.691,2.413 1.252,3.582c2.756,5.744 8.146,9.507 14.435,10.786l0.078,0.016c3.301,0.684 6.848,0.68 10.384,-0.098c2.068,-0.419 4.13,-1.115 6.139,-2.079l44.124,-21.174c5.898,-2.831 10.481,-7.563 12.897,-13.316c2.29,-5.512 2.229,-11.311 -0.168,-16.307c-5.069,-10.564 -19.019,-14.448 -31.102,-8.655l-27.729,13.307l0.996,-11.542l22.425,-10.761c5.902,-2.832 10.481,-7.562 12.896,-13.315c2.291,-5.513 2.237,-11.297 -0.146,-16.263c-5.032,-10.486 -18.904,-14.335 -30.952,-8.605Zm-85.654,5.643l-3.265,-37.841l81.242,0l-2.233,25.879l-38.636,18.541c-5.492,2.636 -10.095,6.564 -13.598,11.341l-15.022,-13.496c-0.151,-0.131 -0.303,-0.256 -0.462,-0.365c-2.491,-1.755 -5.193,-3.117 -8.026,-4.059Zm51.3,-90.795l39.001,-0l0,44.621l-59.271,-0l23.583,-32.565l-8.647,-0.303l5.334,-11.753Zm-16.59,-0l-6.714,22.643l9.555,0.051l-6.524,21.927l-46.616,-0l0,-44.621l50.299,-0Zm-37.129,-12.267c0.946,1.365 1.96,2.677 3.038,3.934l73.474,-0l0.042,-0.05c7.197,-8.409 11.527,-19.331 11.527,-31.256c0,-26.661 -21.645,-48.307 -48.306,-48.307c-21.225,0 -39.271,13.719 -45.748,32.768l12.661,-0c2.301,-0 4.167,1.865 4.167,4.166c-0,2.302 -1.866,4.167 -4.167,4.167l-14.684,0c-0.353,2.353 -0.535,4.758 -0.535,7.206c-0,0.585 0.01,1.168 0.031,1.75l27.756,-0c2.301,-0 4.167,1.865 4.167,4.166c-0,2.301 -1.866,4.167 -4.167,4.167l-26.731,-0c0.662,3.106 1.623,6.102 2.852,8.955l41.086,0c2.301,0 4.167,1.866 4.167,4.167c-0,2.301 -1.866,4.167 -4.167,4.167l-36.463,-0Z" style="fill:#202d60;"/></svg>