<?xml version="1.0" encoding="UTF-8" standalone="no"?><!DOCTYPE svg PUBLIC "-//W3C//DTD SVG 1.1//EN" "http://www.w3.org/Graphics/SVG/1.1/DTD/svg11.dtd"><svg width="100%" height="100%" viewBox="0 0 713 672" version="1.1" xmlns="http://www.w3.org/2000/svg" xmlns:xlink="http://www.w3.org/1999/xlink" xml:space="preserve" xmlns:serif="http://www.serif.com/" style="fill-rule:evenodd;clip-rule:evenodd;stroke-linejoin:round;stroke-miterlimit:2;"><g id="Promo"><path d="M665.225,188.373l2.793,2.15l-23.141,12.517l-45.542,24.295l38.693,32.434l-235.958,71.104c-0,0 31.464,-21.809 34.097,-23.675c-0,-0 84.976,-60.246 84.976,-60.246l-39.494,-30.403l95.173,-69.253l13.837,-9.879l4.341,-3.105l70.225,54.061l-0,0Zm-20.342,-0.266l-0.019,-0.001l-49.436,-38.057l0,0l-91.798,66.797l39.675,30.543l-66.645,47.248c42.329,-12.755 107.768,-32.475 134.211,-40.443l-34.953,-29.298l68.965,-36.789Z" style="fill:#202d60;"/><path d="M469.364,9.081l3.506,0.361l-13.108,22.812l-25.975,44.605l49.965,7.255l-163.365,184.511c0,-0 15.305,-35.091 16.564,-38.063c0,-0 40.627,-95.916 40.627,-95.916l-49.579,-5.107l44.568,-108.939l6.579,-15.677l2.061,-4.923l88.157,9.081l-0,0Zm-17.446,10.465l-0.016,0.01l-62.06,-6.393l0,0l-42.987,105.075l49.806,5.131l-31.863,75.224c29.307,-33.1 74.613,-84.27 92.92,-104.948l-45.134,-6.554l39.334,-67.545Z" style="fill:#202d60;"/><path d="M711.17,473.604l0.887,3.411l-25.955,-4.304l-50.871,-8.74l10.672,49.348l-229.984,-88.539c-0,-0 38.227,2.069 41.452,2.209c-0,0 104.067,4.526 104.067,4.526l-12.551,-48.236l117.645,3.665l16.989,0.682l5.333,0.211l22.316,85.767l-0,0Zm-15.905,-12.685l-0.015,-0.012l-15.709,-60.378l-0,0l-113.473,-3.535l12.608,48.457l-81.618,-3.55c41.258,15.883 105.039,40.438 130.813,50.361l-9.641,-44.578l77.035,13.235Z" style="fill:#202d60;"/><path d="M58.387,593.654l6.125,-4.182c7.733,11.327 23.416,14.285 34.743,6.552l4.646,-3.171c6.835,2.908 12.829,7.493 17.424,13.33c4.549,5.925 45.271,58.038 71.851,65.269c5.001,1.14 10.258,0.025 14.366,-3.047c3.072,-2.095 5.669,-4.813 7.621,-7.977l12.449,-20.859c4.46,-7.615 2.789,-17.43 -3.941,-23.139c-21.574,-17.561 -30.99,-26.772 -33.699,-30.371c1.575,-9.408 -2.005,-18.973 -9.371,-25.034c-4.196,-4.041 -7.013,-9.306 -8.047,-15.039l9.291,-6.343c3.653,-2.489 6.169,-6.332 6.991,-10.675c72.379,-45.325 129.445,-48.714 139.023,-48.947l0.141,0.207c7.733,11.327 23.416,14.285 34.743,6.552c11.327,-7.732 14.285,-23.416 6.552,-34.743l-28.707,-42.052c13.343,-14.154 14.679,-37.617 2.205,-55.891c-12.474,-18.273 -34.766,-25.505 -52.855,-18.302l-31.057,-45.494c-7.732,-11.327 -23.416,-14.285 -34.742,-6.552c-11.327,7.732 -14.285,23.416 -6.553,34.743l0.282,0.413c-17.718,52.455 -71.381,96.153 -91.567,111.295c-5.687,-4.455 -13.652,-4.728 -19.631,-0.674l-82.59,56.381c-11.327,7.733 -14.285,23.416 -6.552,34.743l-6.126,4.182c-11.619,7.707 -14.907,23.568 -7.309,35.259l18.794,27.53c8.121,11.335 24.09,14.05 35.5,6.036Zm241.36,-243.42c11.459,-1.386 22.778,3.747 29.285,13.28c6.508,9.532 7.165,21.943 1.701,32.11l-30.986,-45.39Zm-68.43,-41.119c-2.577,-3.775 -1.592,-9.003 2.184,-11.581c3.776,-2.577 9.004,-1.591 11.581,2.185l110.414,161.739c2.577,3.775 1.591,9.003 -2.184,11.581c-3.776,2.577 -9.004,1.591 -11.581,-2.185l-110.414,-161.739Zm-18.049,321.933l-12.425,20.893c-0.956,1.47 -2.298,2.649 -3.88,3.406c-16.096,-4.955 -46.654,-38.781 -62.681,-59.523c-4.285,-5.198 -9.276,-9.772 -14.826,-13.59l38.301,-26.147c2.619,6.521 6.627,12.393 11.746,17.207l0.828,0.696c4.718,3.438 3.008,10.761 2.94,10.958l-0.354,1.402l0.12,1.432c0.32,3.868 0.706,9.607 40.246,41.44c0.348,0.559 0.342,1.272 -0.015,1.826Zm-181.975,-119.798c-2.578,-3.776 -1.592,-9.003 2.184,-11.581l10.324,-7.048l44.635,65.384c2.578,3.776 7.805,4.762 11.581,2.184c3.776,-2.577 4.762,-7.805 2.184,-11.581l-44.635,-65.383l13.765,-9.397l23.492,34.412c2.578,3.776 7.805,4.762 11.581,2.184c3.776,-2.577 4.762,-7.805 2.184,-11.581l-23.492,-34.412l30.971,-21.143l9.397,13.765c2.577,3.775 7.805,4.761 11.581,2.184c3.776,-2.578 4.762,-7.806 2.184,-11.581l-2.843,-4.164c20.325,-15.086 70.413,-56.04 92.842,-107.877l87.649,128.394c-22.443,2.153 -72.246,11.23 -133.295,48.618l-6.765,-9.911c-2.578,-3.776 -7.806,-4.762 -11.581,-2.184c-3.776,2.577 -4.762,7.805 -2.184,11.581l9.397,13.765l-82.591,56.381c-3.775,2.578 -9.003,1.592 -11.581,-2.184l-46.984,-68.825Zm-13.435,39.441c-2.471,-4.132 -1.151,-9.56 2.941,-12.097l6.126,-4.182l28.191,41.295l-6.126,4.182c-3.853,2.887 -9.389,2.139 -12.338,-1.668l-18.794,-27.53Z" style="fill:#202d60;fill-rule:nonzero;"/></g></svg>