<?xml version="1.0" encoding="UTF-8" standalone="no"?><!DOCTYPE svg PUBLIC "-//W3C//DTD SVG 1.1//EN" "http://www.w3.org/Graphics/SVG/1.1/DTD/svg11.dtd"><svg width="100%" height="100%" viewBox="0 0 454 464" version="1.1" xmlns="http://www.w3.org/2000/svg" xmlns:xlink="http://www.w3.org/1999/xlink" xml:space="preserve" xmlns:serif="http://www.serif.com/" style="fill-rule:evenodd;clip-rule:evenodd;stroke-linejoin:round;stroke-miterlimit:2;"><path d="M136.176,274.263c-2.311,-0.917 -3.946,-3.174 -3.946,-5.812l-0,-9.93c-0,-3.312 2.584,-6.049 5.89,-6.239c5.462,-0.315 11.321,-2.841 17.735,-6.114c11.073,-5.651 23.468,-13.588 37.395,-19.284c2.365,-0.967 4.832,-1.516 7.37,-1.806l-0,-43.482c-14.883,-8.052 -28.636,-23.111 -40.195,-43.712c-5.25,-9.355 -14.343,-31.378 -14.343,-31.378c0,0 -1.354,-1.342 -1.823,-2.226c-3.356,-6.33 -11.827,-11.783 -21.16,-18.905c-16.602,-12.669 -35.968,-29.2 -43.632,-57.121c-3.379,-12.311 -1.332,-19.458 1.869,-23.128c3.81,-4.369 10.453,-5.825 18.582,-3.585c8.024,2.212 25.817,13.165 25.817,13.165l-0.626,-6.48c-0.15,-1.744 0.439,-3.471 1.623,-4.76c1.183,-1.29 2.854,-2.024 4.604,-2.024l190.518,-0c1.75,-0 3.421,0.734 4.604,2.024c1.184,1.289 1.773,3.016 1.623,4.76l-0.624,6.464l0.182,-0.12c7.748,-5.085 17.656,-10.836 25.61,-13.029c8.129,-2.24 14.772,-0.784 18.582,3.585c3.201,3.67 5.248,10.817 1.869,23.128c-7.663,27.921 -27.03,44.452 -43.632,57.121c-9.333,7.122 -17.804,12.575 -21.16,18.905c-0.453,0.854 -1.051,1.581 -1.753,2.162l-0.033,0.028c-4.281,11.521 -9.102,22.049 -14.357,31.414c-11.559,20.601 -25.312,35.66 -40.195,43.712c0,0 0,43.484 0,43.483c2.534,0.291 4.997,0.84 7.358,1.805c13.927,5.696 26.322,13.633 37.396,19.284c6.413,3.273 12.272,5.799 17.734,6.114c3.307,0.19 5.891,2.927 5.891,6.239l-0,9.93c-0,2.638 -1.635,4.895 -3.947,5.812l41.208,-0l0,87.302l94.457,0l0,101.886l-452.167,-0l0,-101.886l94.457,0l-0,-87.302l41.219,-0Zm301.908,101.885l-0,72.72c-0,-0 -423.001,-0 -423.001,-0c0,-0 0,-72.72 0,-72.72l423.001,0Zm-94.457,-87.302l-0,72.719c-0,0 -234.087,0 -234.087,0c0,0 0,-72.719 0,-72.719l234.087,0Zm-204.188,-264.135l0.879,6.648l0.131,0.853c3.248,22.447 8.143,43.257 14.384,61.719c0.957,2.833 1.946,5.61 2.979,8.324c4.036,10.808 8.568,20.698 13.514,29.512c10.97,19.551 23.857,33.734 38.149,40.288c2.221,1.019 3.645,3.238 3.645,5.681l-0,53.315c-0,1.67 -0.668,3.269 -1.855,4.443c-1.186,1.174 -2.793,1.825 -4.462,1.807c-3.069,-0.033 -6.066,0.027 -8.821,1.153c-13.582,5.555 -25.647,13.337 -36.446,18.848c-3.838,1.958 -7.544,3.635 -11.119,4.899l152.338,0c-3.572,-1.266 -7.277,-2.941 -11.113,-4.899c-10.799,-5.511 -22.864,-13.293 -36.446,-18.848c-2.751,-1.125 -5.744,-1.186 -8.81,-1.153c-1.669,0.018 -3.275,-0.633 -4.462,-1.807c-1.186,-1.174 -1.854,-2.774 -1.854,-4.443l0,-53.315c0,-2.443 1.424,-4.662 3.645,-5.681c14.292,-6.554 27.179,-20.737 38.149,-40.288c4.939,-8.802 9.466,-18.677 13.499,-29.473l0.096,-0.258c0.998,-2.662 2.914,-8.153 2.914,-8.153c-0,-0 11.119,-39.212 14.361,-61.628l0.138,-0.896l0.884,-6.689c0,-0 0.871,-7.116 1.236,-10.728c0,-0 -176.795,-0 -176.795,-0c0.368,3.627 1.242,10.769 1.242,10.769Zm72.656,-3.443l-20.523,72.923l31.082,-0l-18.888,65.125l68.975,-96.616l-28.644,-1.99l16.533,-39.441l-48.535,-0.001Zm-84.155,12.74c-3.812,-2.895 -15.043,-11.118 -25.342,-15.901c-2.775,-1.288 -5.461,-2.327 -7.868,-2.827c-0.763,-0.158 -1.807,-0.199 -2.404,-0.207c-0.057,0.309 -0.119,0.702 -0.131,1.026c-0.078,2.127 0.378,4.848 1.323,8.292c6.671,24.304 23.964,38.359 38.416,49.387l4.999,3.844c-0,-0 -6.609,-28.185 -8.817,-43.48l-0.176,-0.134Zm197.137,0.114c-2.217,15.295 -8.814,43.478 -8.814,43.478l4.97,-3.822c14.452,-11.028 31.745,-25.083 38.416,-49.387c0.945,-3.444 1.401,-6.165 1.323,-8.292c-0.012,-0.324 -0.074,-0.717 -0.131,-1.026c-0.597,0.008 -1.641,0.049 -2.404,0.207c-2.407,0.5 -5.093,1.539 -7.868,2.827c-10.275,4.772 -21.479,12.968 -25.315,15.88l-0.177,0.135Z" style="fill:#202d60;stroke:#202d60;stroke-width:1px;"/></svg>